HIERARCHY
ROOT Hips
{
    OFFSET 0.000000 0.000000 0.000000
    CHANNELS 6 Xposition Yposition Zposition Zrotation Xrotation Yrotation
        JOINT Chest
        {
            OFFSET -0.000000 28.502190 -0.000000
            CHANNELS 3 Zrotation Xrotation Yrotation
            JOINT Neck
            {
                OFFSET -0.000000 21.060717 0.000000
                CHANNELS 3 Zrotation Xrotation Yrotation
                JOINT Head
                {
                    OFFSET -0.000000 9.900002 0.000000
                    CHANNELS 3 Zrotation Xrotation Yrotation
                    End Site
                    {
                        OFFSET -0.000000 15.300010 0.000000
                    }
                }
            }
            JOINT LeftCollar
            {
                OFFSET -0.000000 21.060717 0.000000
                CHANNELS 3 Zrotation Xrotation Yrotation
                JOINT LeftShoulder
                {
                    OFFSET 18.000004 -0.000000 0.000000
                    CHANNELS 3 Zrotation Xrotation Yrotation
                    JOINT LeftElbow
                    {
                        OFFSET 21.585543 0.000000 0.000000
                        CHANNELS 3 Zrotation Xrotation Yrotation
                        JOINT LeftWrist
                        {
                            OFFSET 21.310946 0.000000 0.000000
                            CHANNELS 3 Zrotation Xrotation Yrotation
                            End Site
                            {
                                OFFSET 0.000000 -13.500002 0.000000
                            }
                        }
                    }
                }
            }
            JOINT RightCollar
            {
                OFFSET -0.000000 21.060717 0.000000
                CHANNELS 3 Zrotation Xrotation Yrotation
                JOINT RightShoulder
                {
                    OFFSET -18.000004 0.000000 0.000000
                    CHANNELS 3 Zrotation Xrotation Yrotation
                    JOINT RightElbow
                    {
                        OFFSET -21.585543 0.000000 0.000000
                        CHANNELS 3 Zrotation Xrotation Yrotation
                        JOINT RightWrist
                        {
                            OFFSET -21.310946 0.000000 0.000000
                            CHANNELS 3 Zrotation Xrotation Yrotation
                            End Site
                            {
                                OFFSET -0.000000 -13.500002 0.000000
                            }
                        }
                    }
                }
            }
        }
    JOINT LeftHip
    {
        OFFSET 10.800001 0.000000 0.000000
        CHANNELS 3 Zrotation Xrotation Yrotation
        JOINT LeftKnee
        {
            OFFSET -0.000000 -36.918850 0.000000
            CHANNELS 3 Zrotation Xrotation Yrotation
            JOINT LeftAnkle
            {
                OFFSET -0.000000 -34.060452 0.000000
                CHANNELS 3 Zrotation Xrotation Yrotation
                End Site
                {
                    OFFSET -0.000000 -4.500001 15.300010
                }
            }
        }
    }
    JOINT RightHip
    {
        OFFSET -10.800001 0.000000 0.000000
        CHANNELS 3 Zrotation Xrotation Yrotation
        JOINT RightKnee
        {
            OFFSET -0.000000 -36.918850 0.000000
            CHANNELS 3 Zrotation Xrotation Yrotation
            JOINT RightAnkle
            {
                OFFSET -0.000000 -34.060452 0.000000
                CHANNELS 3 Zrotation Xrotation Yrotation
                End Site
                {
                    OFFSET -0.000000 -4.500001 15.300010
                }
            }
        }
    }
}
MOTION
Frames:    7
Frame Time:    0.010000
-123.529343    79.516754    -36.288578    -0.774191    2.343446    60.994625    -1.801167    7.665647    1.084717    2.271047    8.618363    -13.669664    -0.209171    -21.363142    -13.536646    -18.647791    -0.315125    1.807203    -53.693714    19.847385    -10.558017    20.092039    -13.795835    -68.615211    108.621254    -0.533761    50.606480    9.938108    -1.400021    -15.750403    2.244771    60.997437    76.815697    -11.775575    -6.526907    58.492275    -122.664986    -8.982462    -27.456043    -5.618074    -8.946433    -2.835365    0.842988    19.775415    8.857366    1.701501    -12.688982    2.849268    -1.084179    -17.129229    -3.657119    -13.271374    28.997515    23.125635    4.168604    -15.413466    2.949815    
-123.551010    79.527519    -36.163864    -0.756303    2.311403    61.098995    -1.813054    7.811893    1.141226    2.262632    8.167454    -13.622102    -0.354033    -21.147963    -13.524826    -18.593134    -0.341306    1.987911    -53.674576    19.765717    -10.698567    20.113966    -13.773518    -68.548187    108.340820    -0.710751    50.038109    9.973801    -1.381019    -15.758700    1.927702    60.627537    77.024231    -11.539604    -6.380096    58.658173    -122.873184    -8.660769    -27.008493    -5.548107    -8.859516    -2.886359    0.910964    19.722389    8.789088    1.576469    -12.678031    2.878586    -1.245575    -16.881044    -4.531829    -13.033282    28.500982    22.519428    4.252820    -15.042870    4.158310    
-123.572906    79.535934    -36.028011    -0.754811    2.287839    61.225189    -1.819369    7.919409    1.176528    2.270806    7.740268    -13.575045    -0.525742    -20.927341    -13.516755    -18.555498    -0.374224    2.175167    -53.619373    19.716320    -10.834610    20.076487    -13.757406    -68.494072    108.089401    -0.853382    49.539078    10.020398    -1.373621    -15.787522    1.691206    60.273460    77.166687    -11.426553    -6.361348    58.693642    -122.545746    -8.699826    -26.540710    -5.464341    -8.789763    -2.972508    0.959578    19.672226    8.738446    1.447280    -12.672369    2.901219    -1.347401    -16.613037    -5.396102    -12.833276    27.895145    21.564146    4.392968    -14.567980    5.653513    
-123.592186    79.543770    -35.879738    -0.769009    2.263073    61.375099    -1.818861    7.989817    1.185783    2.288482    7.358660    -13.525651    -0.698983    -20.721367    -13.504534    -18.527334    -0.401107    2.364268    -53.539349    19.670214    -10.955064    20.009377    -13.699960    -68.445335    107.812187    -0.961905    49.152489    10.067888    -1.422669    -15.822309    1.534949    59.994133    77.239998    -11.425267    -6.444262    58.593716    -121.743568    -9.107903    -26.078274    -5.360408    -8.733760    -3.070325    0.999961    19.631227    8.684552    1.313652    -12.675861    2.910124    -1.375211    -16.331341    -6.169452    -12.670943    27.235481    20.434393    4.566086    -14.039015    7.199354    
-123.605980    79.552719    -35.719154    -0.798365    2.230667    61.547085    -1.816438    8.026528    1.166124    2.308538    7.041770    -13.474089    -0.841840    -20.551321    -13.482893    -18.494211    -0.427689    2.542838    -53.452076    19.617640    -11.043800    19.930798    -13.614425    -68.414680    107.554512    -0.986849    48.936623    10.153596    -1.411357    -15.850330    1.455489    59.686588    77.197525    -11.331870    -6.368331    58.508045    -120.796234    -9.728901    -25.681841    -5.234252    -8.689155    -3.158171    1.043645    19.604181    8.608894    1.176018    -12.691058    2.901393    -1.322054    -16.045023    -6.779223    -12.544086    26.580212    19.296291    4.748634    -13.510675    8.573747    
-123.611542    79.564163    -35.547718    -0.840936    2.188745    61.734779    -1.827372    8.035844    1.118148    2.327514    6.801702    -13.427353    -0.926098    -20.435202    -13.454497    -18.435369    -0.444807    2.682872    -53.374500    19.530931    -11.088813    19.806082    -13.494250    -68.411720    107.368965    -0.908938    48.886375    10.262016    -1.421590    -15.874166    1.442256    59.429897    77.117729    -11.400121    -6.394151    58.279598    -119.488144    -10.667618    -25.323421    -5.089680    -8.652810    -3.217417    1.101726    19.592525    8.500108    1.034143    -12.719163    2.871902    -1.190794    -15.763664    -7.170452    -12.448270    25.981215    18.280684    4.921471    -13.034006    9.607183    
-123.606201    79.579071    -35.368061    -0.891989    2.139848    61.929443    -1.872628    8.026710    1.045659    2.343544    6.648573    -13.374958    -0.928530    -20.388065    -13.404189    -18.329224    -0.459542    2.787055    -53.321384    19.392632    -11.083386    19.654417    -13.355666    -68.440796    107.213104    -0.762246    48.958870    10.399175    -1.460565    -15.861435    1.494723    59.243137    76.978195    -11.471538    -6.416556    58.002632    -118.207962    -11.759988    -25.031687    -4.936616    -8.620553    -3.234201    1.183840    19.596212    8.352708    0.887791    -12.760626    2.820363    -0.995003    -15.493718    -7.313500    -12.375988    25.477140    17.469692    5.069117    -12.649265    10.203328    
